<?xml version="1.0" encoding="UTF-8"?>
<svg width="131px" height="24px" viewBox="0 0 131 24" version="1.1" xmlns="http://www.w3.org/2000/svg" xmlns:xlink="http://www.w3.org/1999/xlink">
    <!-- Generator: Sketch 52.4 (67378) - http://www.bohemiancoding.com/sketch -->
    <title>Group 5 Copy@2x</title>
    <desc>Created with Sketch.</desc>
    <g id="Page-1" stroke="none" stroke-width="1" fill="none" fill-rule="evenodd">
        <g id="Artboard-Copy-2" transform="translate(-180.000000, -18.000000)" fill="#FFFFFF">
            <g id="Group">
                <g id="Group-5-Copy" transform="translate(180.000000, 18.000000)">
                    <path d="M35.2183158,6.37180328 L32.7007519,6.37180328 L32.7007519,17.5062295 L39.9894737,17.5062295 L39.9894737,15.3108197 L35.2183158,15.3108197 L35.2183158,6.37180328 Z M51.2712331,12.8459016 C51.2712331,14.4511475 50.2862707,15.4229508 48.785188,15.4229508 C47.2841053,15.4229508 46.2380752,14.4511475 46.2380752,12.8459016 L46.2380752,6.37180328 L43.7205113,6.37180328 L43.7205113,12.8459016 C43.7205113,15.7967213 45.6904361,17.6183607 48.785188,17.6183607 C51.8799398,17.6183607 53.7789474,15.7888525 53.7789474,12.8459016 L53.7789474,6.37180328 L51.2712331,6.37180328 L51.2712331,12.8459016 Z M63.7250977,15.3304918 C61.8613588,15.2859024 60.3737558,13.7643305 60.3737558,11.902623 C60.3737558,10.0409154 61.8613588,8.5193435 63.7250977,8.4747541 C64.7612782,8.4747541 65.8604962,9.04721311 66.6248271,9.92262295 L68.0904511,8.14032787 C66.9207686,6.97783007 65.3436847,6.31597152 63.6935789,6.29508197 C60.3171278,6.29508197 57.7522857,8.7147541 57.7522857,11.9272131 C57.7522857,15.1396721 60.2698496,17.6321311 63.5990226,17.6321311 C65.2222406,17.6321311 66.9281955,16.8452459 68.1062105,15.6432787 L66.6248271,14.0360656 C65.8289774,14.8170492 64.7297594,15.3304918 63.7250977,15.3304918 Z M81.8129474,10.2413115 C81.8129474,7.77442623 80.1562406,6.3757377 77.2427218,6.3757377 L72.3986767,6.3757377 L72.3986767,17.5101639 L74.9162406,17.5101639 L74.9162406,14.3252459 L77.4771429,14.3252459 L79.2500752,17.5062295 L82.1025263,17.5062295 L79.7386165,13.8314754 C81.0801353,13.1960656 81.8129474,11.9547541 81.8129474,10.237377 L81.8129474,10.2413115 Z M77.2427218,12.2281967 L74.9162406,12.2281967 L74.9162406,8.45508197 L77.2427218,8.45508197 C78.6216692,8.45508197 79.4234286,9.0747541 79.4234286,10.3160656 C79.4234286,11.5927869 78.6275789,12.2242623 77.2427218,12.2242623 L77.2427218,12.2281967 Z M90.6165414,6.37180328 L85.7744662,17.5062295 L88.3708271,17.5062295 L89.2454737,15.3422951 L94.4066767,15.3422951 L95.2832932,17.5062295 L97.9840602,17.5062295 L93.220782,6.37180328 L90.6165414,6.37180328 Z M90.074812,13.3219672 L91.8477444,8.99409836 L93.6009774,13.3219672 L90.074812,13.3219672 Z M99.5678797,8.50229508 L102.96797,8.50229508 L102.96797,17.5062295 L105.483564,17.5062295 L105.483564,8.50229508 L108.893504,8.50229508 L108.893504,6.37180328 L99.5757594,6.37180328 L99.5678797,8.50229508 Z M112.91806,17.5062295 L115.437594,17.5062295 L115.437594,6.37180328 L112.92594,6.37180328 L112.91806,17.5062295 Z M128.198767,6.37180328 L125.139474,14.7698361 L122.09791,6.37180328 L119.397143,6.37180328 L123.778256,17.5062295 L126.374617,17.5062295 L130.803008,6.37180328 L128.198767,6.37180328 Z" id="Shape" fill-rule="nonzero"></path>
                    <path d="M13.8170526,9.08852459 L12.496218,9.08852459 C12.4443825,9.08708934 12.3937366,9.1041806 12.3533985,9.13672131 L10.035782,11.0596721 L10.035782,19.9563934 C10.035782,20.0390164 10.0958647,20.0793443 10.2160301,20.0793443 L13.8170526,20.0793443 C13.937218,20.0793443 13.9973008,20.0390164 13.9973008,19.9563934 L13.9973008,9.21245902 C13.9973008,9.12983607 13.937218,9.08852459 13.8170526,9.08852459 Z" id="Path"></path>
                    <path d="M19.1456992,4.66721311 L17.8278195,4.66721311 C17.7760946,4.6654132 17.7254327,4.68216094 17.685,4.71442623 L15.3654135,6.63836066 L15.3654135,19.9563934 C15.3654135,20.0390164 15.4254962,20.0793443 15.5456617,20.0793443 L19.1456992,20.0793443 C19.2658647,20.0793443 19.3269323,20.0390164 19.3269323,19.9563934 L19.3269323,4.79114754 C19.3269323,4.70852459 19.2658647,4.66721311 19.1456992,4.66721311 Z" id="Path"></path>
                    <path d="M21.2328346,0.0363934426 L2.80024812,0.0363934426 C1.29109249,0.0412524107 0.0688882223,1.26177425 0.0640225564,2.76885246 L0.0640225564,23.5790164 C0.0651028527,23.7598471 0.21191763,23.9060208 0.393,23.9065574 L2.25359398,23.9065574 L2.25359398,3.3157377 C2.25521978,2.71249815 2.74479988,2.22403165 3.34887218,2.22295082 L20.6842105,2.22295082 C21.2878982,2.22457214 21.7768802,2.71288102 21.7785038,3.3157377 L21.7785038,20.6272131 C21.7774214,21.2304539 21.2882816,21.71936 20.6842105,21.7209836 L8.66766917,21.7209836 L8.66766917,13.6327869 C8.66766917,13.5511475 8.60758647,13.5098361 8.48742105,13.5098361 L7.16658647,13.5098361 C7.11514553,13.5079202 7.06475355,13.5246944 7.02475188,13.5570492 L4.70615038,15.4809836 L4.70615038,22.7006557 C4.70615038,22.7006557 4.70615038,22.7006557 4.70615038,22.7065574 L4.70615038,23.5790164 C4.70669125,23.7596881 4.85322212,23.9060172 5.03414286,23.9065574 L21.2328346,23.9065574 C22.7414462,23.9016984 23.9632095,22.6816169 23.9680752,21.175082 L23.9680752,2.76885246 C23.9637499,1.26193337 22.7418292,0.041255281 21.2328346,0.0363934426 Z" id="Path"></path>
                </g>
            </g>
        </g>
    </g>
</svg>